<?xml version="1.0" standalone="no"?>
<!DOCTYPE svg PUBLIC "-//W3C//DTD SVG 20010904//EN"
 "http://www.w3.org/TR/2001/REC-SVG-20010904/DTD/svg10.dtd">
<svg version="1.0" xmlns="http://www.w3.org/2000/svg"
 width="184.000000pt" height="152.000000pt" viewBox="0 0 184.000000 152.000000"
 preserveAspectRatio="xMidYMid meet">

<g transform="translate(0.000000,152.000000) scale(0.100000,-0.100000)"
fill="#000000" stroke="none">
<path d="M595 1436 c-28 -12 -95 -78 -95 -94 0 -4 -4 -13 -9 -21 -8 -12 -17
-8 -50 22 -23 20 -49 37 -59 37 -10 0 -23 5 -29 11 -17 17 -62 -4 -106 -49
-52 -53 -84 -132 -101 -247 -9 -55 -25 -149 -36 -209 -40 -216 -23 -313 57
-335 81 -23 146 21 178 121 30 90 31 91 67 72 44 -23 101 -13 148 25 22 17 41
31 44 31 2 0 7 -17 11 -38 16 -96 77 -140 164 -120 49 11 50 11 87 -22 47 -41
93 -60 141 -60 37 1 60 8 150 45 l43 18 22 -28 c37 -48 70 -55 175 -39 120 17
251 50 281 70 35 23 52 74 52 153 0 102 -25 151 -76 151 -37 0 -39 24 -7 77
16 27 43 80 59 118 25 60 29 83 29 167 0 159 -22 169 -291 127 l-135 -21 -40
21 c-51 27 -104 26 -154 -2 -57 -32 -64 -60 -65 -272 -1 -219 -15 -216 -29 7
-9 161 -21 207 -60 228 -28 15 -86 12 -128 -5 -36 -15 -38 -15 -55 7 -10 13
-18 26 -18 29 0 13 -69 39 -102 39 -18 -1 -47 -7 -63 -14z m94 -85 c12 -12 25
-56 40 -137 12 -66 33 -172 47 -237 29 -128 26 -163 -11 -177 -50 -19 -50 -19
-125 238 -11 39 -24 72 -28 72 -4 0 -26 -44 -50 -99 -47 -109 -73 -141 -100
-125 -9 6 -35 45 -57 87 -23 42 -46 82 -52 88 -13 13 -21 -10 -52 -161 -34
-159 -48 -194 -81 -205 -30 -9 -50 12 -50 53 0 67 79 462 102 510 29 59 106
62 130 5 35 -86 68 -153 75 -153 5 0 22 30 37 66 79 180 124 226 175 175z
m965 6 c17 -12 17 -18 6 -53 -17 -51 -54 -126 -156 -311 -73 -131 -92 -173
-81 -173 1 0 34 7 72 15 125 26 176 15 160 -36 -10 -30 -71 -54 -203 -79 -208
-40 -209 -33 -63 255 62 121 112 228 111 238 0 20 -15 21 -94 6 -74 -13 -106
-6 -106 24 0 33 25 64 63 76 27 9 229 48 263 50 5 1 18 -5 28 -12z m-435 -14
l24 -16 -6 -161 c-8 -185 -20 -284 -44 -333 -32 -68 -148 -134 -209 -119 -41
11 -99 77 -118 133 -20 61 -36 202 -36 321 0 91 1 94 31 124 l30 31 21 -21
c25 -24 36 -89 37 -208 2 -141 30 -230 84 -264 22 -13 49 6 74 54 13 25 27
213 33 428 0 19 26 48 43 48 7 0 23 -7 36 -17z m103 -325 c-7 -7 -12 -8 -12
-2 0 14 12 26 19 19 2 -3 -1 -11 -7 -17z"/>
<path d="M70 285 l0 -195 155 0 155 0 0 195 0 195 -59 0 c-63 0 -74 -7 -85
-53 -8 -34 -23 -27 -34 16 -8 31 -10 32 -70 35 l-62 3 0 -196z m120 78 c14
-40 28 -75 32 -79 4 -3 17 29 31 72 23 79 24 79 60 82 l37 3 -1 -123 c-2 -142
-8 -183 -29 -183 -11 0 -18 19 -25 73 l-10 73 -19 -65 c-22 -78 -39 -98 -56
-65 -7 12 -20 45 -30 73 l-19 51 0 -60 c-1 -67 -11 -91 -35 -82 -14 5 -16 28
-16 157 l0 151 28 -3 c24 -3 30 -11 52 -75z"/>
<path d="M520 335 c0 -203 18 -239 121 -238 103 1 122 36 127 236 l4 147 -126
0 -126 0 0 -145z m92 -22 c3 -117 5 -128 22 -131 34 -7 46 25 46 122 0 110 6
136 31 136 18 0 19 -9 19 -119 0 -66 -4 -131 -10 -146 -14 -37 -68 -58 -110
-43 -48 16 -60 56 -60 193 l0 115 30 0 29 0 3 -127z"/>
<path d="M900 420 c0 -59 0 -60 28 -60 16 0 31 -3 34 -6 4 -3 -12 -43 -33 -88
-25 -52 -41 -99 -42 -127 l-2 -44 123 -3 122 -3 0 66 0 65 -40 0 c-22 0 -40 4
-40 8 0 5 18 43 40 86 29 56 40 89 40 122 l0 44 -115 0 -115 0 0 -60z m196 9
c3 -6 -19 -60 -50 -121 -31 -61 -56 -114 -56 -119 0 -5 22 -9 49 -9 53 0 70
-12 51 -35 -18 -22 -143 -21 -161 1 -12 14 -6 31 41 122 30 57 56 108 58 112
1 4 -18 10 -43 13 -50 5 -72 18 -61 36 9 15 163 15 172 0z"/>
<path d="M1260 285 l0 -195 60 0 60 0 0 195 0 195 -60 0 -60 0 0 -195z m85
100 c10 -75 2 -232 -12 -246 -26 -26 -33 4 -33 152 0 140 1 149 19 149 16 0
21 -10 26 -55z"/>
<path d="M1573 468 c-33 -16 -56 -83 -60 -178 -4 -74 -1 -91 19 -130 18 -36
31 -48 62 -58 68 -22 135 8 162 74 29 69 16 93 -49 95 -18 0 -41 4 -52 9 -24
9 -15 14 60 26 45 8 50 12 53 37 5 38 -33 111 -64 125 -31 15 -101 14 -131 0z
m127 -38 c25 -25 36 -68 21 -83 -8 -8 -18 -4 -39 16 -31 30 -67 35 -76 11 -11
-29 -7 -169 6 -182 19 -19 46 -14 64 13 20 30 54 34 54 6 0 -11 -12 -33 -26
-50 -21 -26 -33 -31 -68 -31 -69 0 -80 20 -84 151 l-4 109 30 30 c37 36 91 41
122 10z"/>
</g>
</svg>
